<svg width="200" height="200" viewBox="0 0 200 200" fill="none" xmlns="http://www.w3.org/2000/svg">
  <circle cx="100" cy="100" r="95" stroke="#d4af37" stroke-width="4" fill="#1a3a2e"/>
  <circle cx="100" cy="100" r="85" stroke="#d4af37" stroke-width="1" fill="none"/>
  
  <!-- Stylized Fern Leaf -->
  <path d="M100 160C100 160 100 120 100 80M100 80C100 80 120 90 135 110M100 95C100 95 125 105 140 125M100 110C100 110 130 120 145 140M100 80C100 80 80 90 65 110M100 95C100 95 75 105 60 125M100 110C100 110 70 120 55 140M100 60C100 60 110 50 125 45M100 60C100 60 90 50 75 45" stroke="#d4af37" stroke-width="3" stroke-linecap="round"/>
  
  <text x="100" y="105" font-family="Cormorant Garamond" font-size="28" font-weight="700" fill="#ffffff" text-anchor="middle">RF</text>
  
  <path d="M50 100C50 72.3858 72.3858 50 100 50C127.614 50 150 72.3858 150 100C150 127.614 127.614 150 100 150C72.3858 150 50 127.614 50 100Z" stroke="#d4af37" stroke-width="0.5" stroke-dasharray="2 2"/>
</svg>
